<svg xmlns="http://www.w3.org/2000/svg" viewBox="0 0 320 320" role="img" aria-label="Green Hill Lombok">
  <rect width="320" height="320" fill="#F5F1E8"/>
  <circle cx="160" cy="160" r="146" fill="none" stroke="#28352A" stroke-width="2.25"/>
  <!-- Landscape emblem -->
  <g fill="none" stroke="#28352A" stroke-width="2" stroke-linecap="round" stroke-linejoin="round">
    <path d="M108 118c2-18 10-34 22-46 3 14 4 28 2 42"/>
    <path d="M118 92c8-6 16-8 24-6"/>
    <path d="M122 102c10-4 18-3 26 2"/>
    <path d="M98 132c28-8 56-6 84 8"/>
    <path d="M92 148c36-4 72 2 108 14"/>
    <path d="M88 162c40 2 78 10 112 22"/>
  </g>
  <circle cx="198" cy="98" r="11" fill="#28352A"/>
  <!-- Wordmark -->
  <text x="160" y="208" text-anchor="middle" fill="#28352A" font-family="Georgia, 'Times New Roman', serif" font-size="28" letter-spacing="4">GREEN HILL</text>
  <text x="160" y="232" text-anchor="middle" fill="#28352A" font-family="system-ui, -apple-system, sans-serif" font-size="11" letter-spacing="6.5" font-weight="500">LOMBOK</text>
  <line x1="108" y1="244" x2="212" y2="244" stroke="#C7B38A" stroke-width="1"/>
  <text x="160" y="262" text-anchor="middle" fill="#28352A" font-family="system-ui, -apple-system, sans-serif" font-size="6.5" letter-spacing="1.2" font-weight="500">CURATED PROPERTY &amp; LAND OPPORTUNITIES</text>
</svg>
